<svg  fill="rgba(0,0,0,0.5)" height="180px" width="180px" viewBox="0 0 180 180" preserveAspectRatio="none" xmlns="http://www.w3.org/2000/svg"><path d="M0,21.68a50,50,0,0,0,39.77,28A40.1,40.1,0,0,1,0,85.05V95a40.1,40.1,0,0,1,39.77,35.37A50,50,0,0,0,0,158.32V180H5a40.09,40.09,0,0,1,35.37-39.76,50.08,50.08,0,0,0,28,39.76h43.36a50.08,50.08,0,0,0,28-39.76A40.09,40.09,0,0,1,175.05,180H180V158.32a50,50,0,0,0-39.77-28A40.1,40.1,0,0,1,180,95v-9.9a40.1,40.1,0,0,1-39.77-35.37,50,50,0,0,0,39.77-28V0h-4.95a40.09,40.09,0,0,1-35.37,39.76A50.08,50.08,0,0,0,111.65,0H68.35a50.08,50.08,0,0,0-28,39.76A40.09,40.09,0,0,1,5,0H0ZM90,175.05a40.1,40.1,0,0,1-39.77-35.37,50,50,0,0,0,39.77-28,50,50,0,0,0,39.77,28A40.1,40.1,0,0,1,90,175.05ZM158.32,90a50.08,50.08,0,0,0-28,39.76,40,40,0,0,1,0-79.52A50.08,50.08,0,0,0,158.32,90ZM90,5a40.1,40.1,0,0,1,39.77,35.37A50,50,0,0,0,90,68.32a50,50,0,0,0-39.77-28A40.1,40.1,0,0,1,90,5ZM49.68,50.24a40,40,0,0,1,0,79.52A50.08,50.08,0,0,0,21.68,90,50.08,50.08,0,0,0,49.68,50.24Z"/></svg>