<svg id="Layer_1" data-name="Layer 1" xmlns="http://www.w3.org/2000/svg" viewBox="0 0 5000 2278.87"><path d="M4949.39,2906.9v4.1l-11.32,5h-9.29l20.61-9.1m0-12.67v4.09q-20.52,8.79-41.13,17.68h-9.48Q4924.18,2905,4949.39,2894.23Zm0-12.66v4.06q-36.2,15-72.76,30.37h-19.42c-292.77-27.11-595.9-24.95-904.37,0h-43.9c329-28.83,652.34-32.38,963.78-2.43Q4911.25,2897.42,4949.39,2881.57Zm0-12.67v4q-35.76,14.33-71.9,29l-.46.18-.48-.07c-607.86-92.43-1230-72.62-1839,14h-26.74c617.5-89.8,1249-111.52,1865.78-17.79Q4913.19,2883.39,4949.39,2868.9Zm0-12.68v4q-33.87,13-68.1,26.32l-.49.19-.51-.1c-946.43-188.41-1873.81-134.22-2722.76,29.34h-20.29c854.47-166.55,1789.16-223,2743.23-33.15Q4915.12,2869.38,4949.39,2856.22Zm0-12.67v4q-32,11.68-64.31,23.67l-.52.2-.53-.13c-1325.54-317.08-2537.34-205.55-3552.49,44.7h-16c1018.5-252.93,2236.17-367.17,3568.75-48.5Q4917.07,2855.37,4949.39,2843.55Zm0-12.7v4q-30.09,10.41-60.53,21.07l-.52.19-.54-.15C3139.49,2377.09,1686.28,2575.63,594.94,2916h-12.8c1093-342.72,2550.88-544.46,4306.07-63.85Q4919,2841.35,4949.39,2830.85Zm0-12.71v4q-28.22,9.12-56.74,18.48l-.54.18-.54-.16c-2215.86-674-3842.35-352-4914.21,75.41H-32.76c1072.17-429.35,2702.11-755.13,4924.83-79.2Q4920.9,2827.35,4949.39,2818.14Zm0-12.74v3.93q-26.34,7.85-53,15.9l-.55.17-.53-.18C2551.29,2049.8,962,2301-50.61,2707.28v-4.07c1013.15-406.15,2602.76-657,4946.54,118.24Q4922.81,2813.32,4949.39,2805.4Zm0-38.3V2771q-20.74,4.08-41.68,8.3l-.5.1-.5-.2C2286.76,1745.56,807.17,1745.65-50.61,2049.05v-4c858.73-303.2,2339-302.83,4958.13,730.38Q4928.55,2771.2,4949.39,2767.1Zm0-12.83v3.82q-18.89,2.86-37.94,5.83l-.49.08-.46-.2C2219,1655.85,764.82,1571.59-50.61,1832.06v-4c816.53-260.21,2271.43-175.5,4962,932Q4930.47,2757.15,4949.39,2754.27Zm0-12.86v3.79q-17,1.65-34.21,3.38l-.46.05-.43-.18C2162.64,1573,728.23,1405.08-50.61,1618.14v-4c780-212.74,2215.33-44.39,4965.89,1130.59Q4932.41,2743.06,4949.39,2741.41Zm0-12.93v3.77q-15.21.48-30.52,1h-.41l-.37-.16C2119,1497.62,698.05,1247-50.61,1408v-3.67c750-160.74,2171.88,90.21,4969.79,1325.12Q4934.33,2728.95,4949.39,2728.48Zm0-13v3.78q-13.4-.69-26.84-1.34h-.35l-.3-.14C2088,1430.12,674.63,1098.68-50.61,1203.52V1200c726.68-104.59,2141.18,227.22,4973.68,1514.19Zm0-13.14v3.82l-23.21-3.6-.25,0-.23-.11C2069.24,1370.43,658.12,961-50.61,1006.39V1003C659.62,957.87,2071.86,1367.51,4927,2698.84Zm0-13.33v3.93l-19.62-5.77-.13,0-.14-.06C2061.76,1318.25,648.38,834.76-50.61,818.27V815C650,831.69,2064.53,1315.41,4930.9,2683.55Zm0-13.65v4.17q-8-3.9-16.08-7.82C2064.81,1273.33,645.16,720-50.61,640.27v-3.14C646.8,717,2067.61,1270.51,4934.88,2668.28Zm0,108.42q-22.61,5.34-45.43,10.82l-.53.13-.52-.2c-2537.21-952.83-4048.33-868.77-4953.52-527v-4c906-341.59,2417.65-425.24,4954.27,527.29q23-5.52,45.73-10.88Zm-5000-300.68c957.68-375.81,2505.9-543.28,4950.39,323q24.93-6.83,49.61-13.46v3.91q-24.47,6.58-49.19,13.35l-.53.15-.54-.2C2454.21,1943.29,906.38,2111.17-50.61,2487.11Z" transform="translate(50.61 -637.13)" style="fill:#e5e5e5"/></svg>